G75*
%MOIN*%
%OFA0B0*%
%FSLAX25Y25*%
%IPPOS*%
%LPD*%
%AMOC8*
5,1,8,0,0,1.08239X$1,22.5*
%
%ADD10C,0.06000*%
%ADD11R,0.02000X0.02000*%
%ADD12C,0.06000*%
%ADD13OC8,0.06000*%
%ADD14C,0.00500*%
%ADD15C,0.03569*%
%ADD16C,0.01600*%
%ADD17R,0.05315X0.05315*%
D10*
X0011300Y0036800D02*
X0017300Y0036800D01*
X0017300Y0046800D02*
X0011300Y0046800D01*
X0011300Y0056800D02*
X0017300Y0056800D01*
X0014800Y0069300D02*
X0008800Y0069300D01*
X0008800Y0079300D02*
X0014800Y0079300D01*
X0014800Y0089300D02*
X0008800Y0089300D01*
X0008800Y0099300D02*
X0014800Y0099300D01*
X0014800Y0109300D02*
X0008800Y0109300D01*
X0066800Y0158800D02*
X0066800Y0164800D01*
X0076800Y0164800D02*
X0076800Y0158800D01*
X0086800Y0158800D02*
X0086800Y0164800D01*
X0096800Y0164800D02*
X0096800Y0158800D01*
X0106800Y0158800D02*
X0106800Y0164800D01*
X0158800Y0109300D02*
X0164800Y0109300D01*
X0164800Y0099300D02*
X0158800Y0099300D01*
X0158800Y0089300D02*
X0164800Y0089300D01*
X0164800Y0079300D02*
X0158800Y0079300D01*
X0158800Y0069300D02*
X0164800Y0069300D01*
X0106800Y0014800D02*
X0106800Y0008800D01*
X0096800Y0008800D02*
X0096800Y0014800D01*
X0086800Y0014800D02*
X0086800Y0008800D01*
X0076800Y0008800D02*
X0076800Y0014800D01*
X0066800Y0014800D02*
X0066800Y0008800D01*
D11*
X0066800Y0011800D03*
X0029300Y0019300D03*
X0011800Y0069300D03*
X0009300Y0154300D03*
X0106800Y0161800D03*
X0144300Y0154300D03*
X0161800Y0109300D03*
X0164300Y0019300D03*
D12*
X0164300Y0019300D03*
X0144300Y0154300D03*
X0029300Y0019300D03*
X0009300Y0154300D03*
D13*
X0009300Y0009300D03*
X0009300Y0019300D03*
X0019300Y0019300D03*
X0019300Y0009300D03*
X0029300Y0009300D03*
X0144300Y0009300D03*
X0154300Y0009300D03*
X0154300Y0019300D03*
X0144300Y0019300D03*
X0164300Y0009300D03*
X0164300Y0154300D03*
X0164300Y0164300D03*
X0154300Y0164300D03*
X0144300Y0164300D03*
X0154300Y0154300D03*
X0029300Y0154300D03*
X0019300Y0154300D03*
X0019300Y0164300D03*
X0029300Y0164300D03*
X0009300Y0164300D03*
D14*
X0009300Y0159300D02*
X0009300Y0154300D01*
X0029300Y0019300D02*
X0029300Y0014300D01*
X0164300Y0014300D02*
X0164300Y0019300D01*
X0144300Y0154300D02*
X0144300Y0159300D01*
D15*
X0121800Y0139300D03*
X0116800Y0139300D03*
X0111800Y0139300D03*
X0101800Y0139300D03*
X0116800Y0149300D03*
X0134300Y0134300D03*
X0141800Y0126800D03*
X0144300Y0134300D03*
X0144300Y0109300D03*
X0141800Y0099300D03*
X0134300Y0104300D03*
X0134300Y0109300D03*
X0119300Y0109300D03*
X0114300Y0104300D03*
X0109300Y0086800D03*
X0099300Y0081800D03*
X0099300Y0076800D03*
X0094300Y0066800D03*
X0081800Y0079300D03*
X0066800Y0079300D03*
X0059300Y0071800D03*
X0054300Y0066800D03*
X0039300Y0056800D03*
X0029300Y0051800D03*
X0034300Y0041800D03*
X0031800Y0029300D03*
X0024300Y0024300D03*
X0026800Y0061800D03*
X0026800Y0069300D03*
X0026800Y0081800D03*
X0049300Y0089300D03*
X0059300Y0089300D03*
X0059300Y0099300D03*
X0059300Y0104300D03*
X0054300Y0121800D03*
X0039300Y0111800D03*
X0024300Y0129300D03*
X0024300Y0134300D03*
X0014300Y0129300D03*
X0019300Y0144300D03*
X0029300Y0144300D03*
X0034300Y0149300D03*
X0034300Y0159300D03*
X0046800Y0154300D03*
X0071800Y0154300D03*
X0074300Y0126800D03*
X0076800Y0111800D03*
X0094300Y0094300D03*
X0119300Y0056800D03*
X0114300Y0051800D03*
X0134300Y0051800D03*
X0144300Y0029300D03*
X0131800Y0021800D03*
X0124300Y0021800D03*
X0114300Y0021800D03*
X0114300Y0016800D03*
X0101800Y0024300D03*
X0091800Y0041800D03*
X0086800Y0041800D03*
X0081800Y0031800D03*
X0076800Y0031800D03*
X0141800Y0089300D03*
D16*
X0141800Y0059300D01*
X0144300Y0056800D01*
X0144300Y0029300D01*
X0146700Y0031686D02*
X0147169Y0031217D01*
X0147684Y0029973D01*
X0147684Y0028627D01*
X0147169Y0027383D01*
X0146486Y0026700D01*
X0157277Y0026700D01*
X0158159Y0026335D01*
X0158835Y0025659D01*
X0161335Y0023159D01*
X0161360Y0023097D01*
X0161784Y0023405D01*
X0162457Y0023748D01*
X0163176Y0023982D01*
X0163922Y0024100D01*
X0164100Y0024100D01*
X0164100Y0021900D01*
X0164500Y0021900D01*
X0164500Y0024100D01*
X0164678Y0024100D01*
X0165424Y0023982D01*
X0166143Y0023748D01*
X0166200Y0023719D01*
X0166200Y0064901D01*
X0165715Y0064700D01*
X0157885Y0064700D01*
X0156194Y0065400D01*
X0154900Y0066694D01*
X0154200Y0068385D01*
X0154200Y0070215D01*
X0154900Y0071906D01*
X0156194Y0073200D01*
X0157885Y0073900D01*
X0165715Y0073900D01*
X0166200Y0073699D01*
X0166200Y0074901D01*
X0165715Y0074700D01*
X0157885Y0074700D01*
X0156194Y0075400D01*
X0154900Y0076694D01*
X0154200Y0078385D01*
X0154200Y0080215D01*
X0154900Y0081906D01*
X0156194Y0083200D01*
X0157885Y0083900D01*
X0165715Y0083900D01*
X0166200Y0083699D01*
X0166200Y0084901D01*
X0165715Y0084700D01*
X0157885Y0084700D01*
X0156194Y0085400D01*
X0154900Y0086694D01*
X0154200Y0088385D01*
X0154200Y0090215D01*
X0154900Y0091906D01*
X0156194Y0093200D01*
X0157885Y0093900D01*
X0165715Y0093900D01*
X0166200Y0093699D01*
X0166200Y0094901D01*
X0165715Y0094700D01*
X0157885Y0094700D01*
X0156265Y0095371D01*
X0153835Y0092941D01*
X0153835Y0092941D01*
X0153159Y0092265D01*
X0152277Y0091900D01*
X0143986Y0091900D01*
X0144669Y0091217D01*
X0145184Y0089973D01*
X0145184Y0088627D01*
X0144669Y0087383D01*
X0144200Y0086914D01*
X0144200Y0060294D01*
X0146335Y0058159D01*
X0146700Y0057277D01*
X0146700Y0031686D01*
X0146902Y0031484D02*
X0166200Y0031484D01*
X0166200Y0033082D02*
X0146700Y0033082D01*
X0146700Y0034681D02*
X0166200Y0034681D01*
X0166200Y0036279D02*
X0146700Y0036279D01*
X0146700Y0037878D02*
X0166200Y0037878D01*
X0166200Y0039476D02*
X0146700Y0039476D01*
X0146700Y0041075D02*
X0166200Y0041075D01*
X0166200Y0042673D02*
X0146700Y0042673D01*
X0146700Y0044272D02*
X0166200Y0044272D01*
X0166200Y0045870D02*
X0146700Y0045870D01*
X0146700Y0047469D02*
X0166200Y0047469D01*
X0166200Y0049068D02*
X0146700Y0049068D01*
X0146700Y0050666D02*
X0166200Y0050666D01*
X0166200Y0052265D02*
X0146700Y0052265D01*
X0146700Y0053863D02*
X0166200Y0053863D01*
X0166200Y0055462D02*
X0146700Y0055462D01*
X0146700Y0057060D02*
X0166200Y0057060D01*
X0166200Y0058659D02*
X0145836Y0058659D01*
X0144237Y0060257D02*
X0166200Y0060257D01*
X0166200Y0061856D02*
X0144200Y0061856D01*
X0144200Y0063454D02*
X0166200Y0063454D01*
X0157034Y0065053D02*
X0144200Y0065053D01*
X0144200Y0066651D02*
X0154943Y0066651D01*
X0154256Y0068250D02*
X0144200Y0068250D01*
X0144200Y0069848D02*
X0154200Y0069848D01*
X0154710Y0071447D02*
X0144200Y0071447D01*
X0144200Y0073045D02*
X0156040Y0073045D01*
X0155352Y0076242D02*
X0144200Y0076242D01*
X0144200Y0074644D02*
X0166200Y0074644D01*
X0166200Y0084235D02*
X0144200Y0084235D01*
X0144200Y0085833D02*
X0155761Y0085833D01*
X0154595Y0087432D02*
X0144689Y0087432D01*
X0145184Y0089030D02*
X0154200Y0089030D01*
X0154371Y0090629D02*
X0144913Y0090629D01*
X0139614Y0091900D02*
X0138931Y0091217D01*
X0138416Y0089973D01*
X0138416Y0088627D01*
X0138931Y0087383D01*
X0139400Y0086914D01*
X0139400Y0060294D01*
X0134290Y0055184D01*
X0133627Y0055184D01*
X0132383Y0054669D01*
X0131431Y0053717D01*
X0130916Y0052473D01*
X0130916Y0051127D01*
X0131431Y0049883D01*
X0132383Y0048931D01*
X0133627Y0048416D01*
X0134973Y0048416D01*
X0136217Y0048931D01*
X0137169Y0049883D01*
X0137684Y0051127D01*
X0137684Y0051790D01*
X0141800Y0055906D01*
X0141900Y0055806D01*
X0141900Y0031686D01*
X0141431Y0031217D01*
X0140916Y0029973D01*
X0140916Y0028627D01*
X0141431Y0027383D01*
X0142114Y0026700D01*
X0133823Y0026700D01*
X0132941Y0026335D01*
X0131790Y0025184D01*
X0131127Y0025184D01*
X0129883Y0024669D01*
X0128931Y0023717D01*
X0128416Y0022473D01*
X0128416Y0021127D01*
X0128450Y0021044D01*
X0127684Y0021810D01*
X0127684Y0022473D01*
X0127169Y0023717D01*
X0126217Y0024669D01*
X0124973Y0025184D01*
X0123627Y0025184D01*
X0122383Y0024669D01*
X0121700Y0023986D01*
X0121700Y0054414D01*
X0122169Y0054883D01*
X0122684Y0056127D01*
X0122684Y0057473D01*
X0122169Y0058717D01*
X0121700Y0059186D01*
X0121700Y0106914D01*
X0122169Y0107383D01*
X0122684Y0108627D01*
X0122684Y0109973D01*
X0122169Y0111217D01*
X0121217Y0112169D01*
X0119973Y0112684D01*
X0118627Y0112684D01*
X0117383Y0112169D01*
X0116431Y0111217D01*
X0115916Y0109973D01*
X0115916Y0108627D01*
X0116431Y0107383D01*
X0116900Y0106914D01*
X0116900Y0059186D01*
X0116431Y0058717D01*
X0115916Y0057473D01*
X0115916Y0056127D01*
X0116431Y0054883D01*
X0116900Y0054414D01*
X0116900Y0040294D01*
X0115806Y0039200D01*
X0093986Y0039200D01*
X0094669Y0039883D01*
X0095184Y0041127D01*
X0095184Y0041790D01*
X0105659Y0052265D01*
X0116900Y0052265D01*
X0116900Y0053863D02*
X0106700Y0053863D01*
X0106700Y0053823D02*
X0106700Y0072277D01*
X0106335Y0073159D01*
X0102684Y0076810D01*
X0102684Y0077473D01*
X0102169Y0078717D01*
X0101586Y0079300D01*
X0102169Y0079883D01*
X0102684Y0081127D01*
X0102684Y0082473D01*
X0102169Y0083717D01*
X0101486Y0084400D01*
X0106914Y0084400D01*
X0107383Y0083931D01*
X0108627Y0083416D01*
X0109973Y0083416D01*
X0111217Y0083931D01*
X0112169Y0084883D01*
X0112684Y0086127D01*
X0112684Y0087473D01*
X0112169Y0088717D01*
X0111217Y0089669D01*
X0109973Y0090184D01*
X0108627Y0090184D01*
X0107383Y0089669D01*
X0106914Y0089200D01*
X0083823Y0089200D01*
X0082941Y0088835D01*
X0068306Y0074200D01*
X0067794Y0074200D01*
X0064200Y0077794D01*
X0064200Y0087277D01*
X0063835Y0088159D01*
X0062684Y0089310D01*
X0062684Y0089973D01*
X0062169Y0091217D01*
X0061217Y0092169D01*
X0059973Y0092684D01*
X0058627Y0092684D01*
X0057383Y0092169D01*
X0056431Y0091217D01*
X0056239Y0090755D01*
X0054200Y0092794D01*
X0054200Y0101006D01*
X0055916Y0099290D01*
X0055916Y0098627D01*
X0056431Y0097383D01*
X0057383Y0096431D01*
X0058627Y0095916D01*
X0059973Y0095916D01*
X0061217Y0096431D01*
X0062169Y0097383D01*
X0062684Y0098627D01*
X0062684Y0099973D01*
X0062169Y0101217D01*
X0061586Y0101800D01*
X0062169Y0102383D01*
X0062684Y0103627D01*
X0062684Y0104290D01*
X0065659Y0107265D01*
X0066335Y0107941D01*
X0066700Y0108823D01*
X0066700Y0129777D01*
X0066335Y0130659D01*
X0037684Y0159310D01*
X0037684Y0159973D01*
X0037169Y0161217D01*
X0036217Y0162169D01*
X0034973Y0162684D01*
X0033900Y0162684D01*
X0033900Y0166200D01*
X0062208Y0166200D01*
X0062118Y0165924D01*
X0062000Y0165178D01*
X0062000Y0162000D01*
X0066600Y0162000D01*
X0066600Y0161600D01*
X0067000Y0161600D01*
X0067000Y0162000D01*
X0071600Y0162000D01*
X0071600Y0165178D01*
X0071482Y0165924D01*
X0071392Y0166200D01*
X0072401Y0166200D01*
X0072200Y0165715D01*
X0072200Y0157885D01*
X0072283Y0157684D01*
X0071483Y0157684D01*
X0071600Y0158422D01*
X0071600Y0161600D01*
X0067000Y0161600D01*
X0067000Y0154000D01*
X0067178Y0154000D01*
X0067924Y0154118D01*
X0068416Y0154278D01*
X0068416Y0153627D01*
X0068931Y0152383D01*
X0069883Y0151431D01*
X0071127Y0150916D01*
X0071790Y0150916D01*
X0084765Y0137941D01*
X0085441Y0137265D01*
X0086323Y0136900D01*
X0099414Y0136900D01*
X0099883Y0136431D01*
X0101127Y0135916D01*
X0102473Y0135916D01*
X0103717Y0136431D01*
X0104669Y0137383D01*
X0105184Y0138627D01*
X0105184Y0139973D01*
X0104669Y0141217D01*
X0103717Y0142169D01*
X0102473Y0142684D01*
X0101127Y0142684D01*
X0099883Y0142169D01*
X0099414Y0141700D01*
X0087794Y0141700D01*
X0075184Y0154310D01*
X0075184Y0154490D01*
X0075885Y0154200D01*
X0077715Y0154200D01*
X0079406Y0154900D01*
X0080700Y0156194D01*
X0081400Y0157885D01*
X0081400Y0165715D01*
X0081199Y0166200D01*
X0082401Y0166200D01*
X0082200Y0165715D01*
X0082200Y0157885D01*
X0082900Y0156194D01*
X0084194Y0154900D01*
X0085885Y0154200D01*
X0087715Y0154200D01*
X0089406Y0154900D01*
X0090700Y0156194D01*
X0091400Y0157885D01*
X0091400Y0165715D01*
X0091199Y0166200D01*
X0092401Y0166200D01*
X0092200Y0165715D01*
X0092200Y0157885D01*
X0092900Y0156194D01*
X0094194Y0154900D01*
X0095885Y0154200D01*
X0097715Y0154200D01*
X0099406Y0154900D01*
X0100700Y0156194D01*
X0101400Y0157885D01*
X0101400Y0165715D01*
X0101199Y0166200D01*
X0102401Y0166200D01*
X0102200Y0165715D01*
X0102200Y0157885D01*
X0102900Y0156194D01*
X0104194Y0154900D01*
X0105885Y0154200D01*
X0107715Y0154200D01*
X0109406Y0154900D01*
X0110700Y0156194D01*
X0111400Y0157885D01*
X0111400Y0165715D01*
X0111199Y0166200D01*
X0125306Y0166200D01*
X0109765Y0150659D01*
X0109400Y0149777D01*
X0109400Y0141686D01*
X0108931Y0141217D01*
X0108416Y0139973D01*
X0108416Y0138627D01*
X0108931Y0137383D01*
X0109883Y0136431D01*
X0111127Y0135916D01*
X0112473Y0135916D01*
X0113717Y0136431D01*
X0114300Y0137014D01*
X0114883Y0136431D01*
X0116127Y0135916D01*
X0117473Y0135916D01*
X0118717Y0136431D01*
X0119300Y0137014D01*
X0119883Y0136431D01*
X0121127Y0135916D01*
X0122473Y0135916D01*
X0123717Y0136431D01*
X0124669Y0137383D01*
X0125184Y0138627D01*
X0125184Y0139973D01*
X0124669Y0141217D01*
X0124200Y0141686D01*
X0124200Y0148306D01*
X0132794Y0156900D01*
X0140256Y0156900D01*
X0140195Y0156816D01*
X0139852Y0156143D01*
X0139618Y0155424D01*
X0139500Y0154678D01*
X0139500Y0154500D01*
X0141700Y0154500D01*
X0141700Y0154100D01*
X0139500Y0154100D01*
X0139500Y0153922D01*
X0139618Y0153176D01*
X0139852Y0152457D01*
X0140195Y0151784D01*
X0140639Y0151173D01*
X0141173Y0150639D01*
X0141784Y0150195D01*
X0142457Y0149852D01*
X0143176Y0149618D01*
X0143922Y0149500D01*
X0144100Y0149500D01*
X0144100Y0151700D01*
X0144500Y0151700D01*
X0144500Y0149500D01*
X0144678Y0149500D01*
X0145424Y0149618D01*
X0146143Y0149852D01*
X0146785Y0150179D01*
X0134290Y0137684D01*
X0133627Y0137684D01*
X0132383Y0137169D01*
X0131431Y0136217D01*
X0130916Y0134973D01*
X0130916Y0133627D01*
X0131431Y0132383D01*
X0132383Y0131431D01*
X0133627Y0130916D01*
X0134973Y0130916D01*
X0136217Y0131431D01*
X0137169Y0132383D01*
X0137684Y0133627D01*
X0137684Y0134290D01*
X0153094Y0149700D01*
X0156205Y0149700D01*
X0158900Y0152395D01*
X0158900Y0156205D01*
X0158205Y0156900D01*
X0159777Y0156900D01*
X0160659Y0157265D01*
X0161335Y0157941D01*
X0163094Y0159700D01*
X0166200Y0159700D01*
X0166200Y0158900D01*
X0162395Y0158900D01*
X0159700Y0156205D01*
X0159700Y0152395D01*
X0162395Y0149700D01*
X0166200Y0149700D01*
X0166200Y0113699D01*
X0165715Y0113900D01*
X0157885Y0113900D01*
X0156194Y0113200D01*
X0154900Y0111906D01*
X0154200Y0110215D01*
X0154200Y0108385D01*
X0154432Y0107826D01*
X0153306Y0106700D01*
X0146486Y0106700D01*
X0147169Y0107383D01*
X0147684Y0108627D01*
X0147684Y0109973D01*
X0147169Y0111217D01*
X0146217Y0112169D01*
X0144973Y0112684D01*
X0143627Y0112684D01*
X0142383Y0112169D01*
X0141914Y0111700D01*
X0136686Y0111700D01*
X0136217Y0112169D01*
X0134973Y0112684D01*
X0133627Y0112684D01*
X0132383Y0112169D01*
X0131700Y0111486D01*
X0131700Y0113306D01*
X0141810Y0123416D01*
X0142473Y0123416D01*
X0143717Y0123931D01*
X0144669Y0124883D01*
X0145184Y0126127D01*
X0145184Y0127473D01*
X0144669Y0128717D01*
X0143717Y0129669D01*
X0142473Y0130184D01*
X0141127Y0130184D01*
X0139883Y0129669D01*
X0138931Y0128717D01*
X0138416Y0127473D01*
X0138416Y0126810D01*
X0127941Y0116335D01*
X0127265Y0115659D01*
X0126900Y0114777D01*
X0126900Y0101323D01*
X0127265Y0100441D01*
X0129400Y0098306D01*
X0129400Y0096323D01*
X0129765Y0095441D01*
X0132265Y0092941D01*
X0132941Y0092265D01*
X0133823Y0091900D01*
X0139614Y0091900D01*
X0138687Y0090629D02*
X0121700Y0090629D01*
X0121700Y0092227D02*
X0133032Y0092227D01*
X0131380Y0093826D02*
X0121700Y0093826D01*
X0121700Y0095424D02*
X0129782Y0095424D01*
X0129400Y0097023D02*
X0121700Y0097023D01*
X0121700Y0098621D02*
X0129085Y0098621D01*
X0127486Y0100220D02*
X0121700Y0100220D01*
X0121700Y0101818D02*
X0126900Y0101818D01*
X0126900Y0103417D02*
X0121700Y0103417D01*
X0121700Y0105015D02*
X0126900Y0105015D01*
X0126900Y0106614D02*
X0121700Y0106614D01*
X0122513Y0108212D02*
X0126900Y0108212D01*
X0126900Y0109811D02*
X0122684Y0109811D01*
X0121977Y0111409D02*
X0126900Y0111409D01*
X0126900Y0113008D02*
X0079963Y0113008D01*
X0080184Y0112473D02*
X0079669Y0113717D01*
X0078717Y0114669D01*
X0077473Y0115184D01*
X0076127Y0115184D01*
X0074883Y0114669D01*
X0073931Y0113717D01*
X0073416Y0112473D01*
X0073416Y0111127D01*
X0073931Y0109883D01*
X0074883Y0108931D01*
X0076127Y0108416D01*
X0076790Y0108416D01*
X0090916Y0094290D01*
X0090916Y0093627D01*
X0091431Y0092383D01*
X0092383Y0091431D01*
X0093627Y0090916D01*
X0094973Y0090916D01*
X0096217Y0091431D01*
X0097169Y0092383D01*
X0097684Y0093627D01*
X0097684Y0094973D01*
X0097169Y0096217D01*
X0096217Y0097169D01*
X0094973Y0097684D01*
X0094310Y0097684D01*
X0080184Y0111810D01*
X0080184Y0112473D01*
X0080585Y0111409D02*
X0116623Y0111409D01*
X0115916Y0109811D02*
X0082183Y0109811D01*
X0083782Y0108212D02*
X0116087Y0108212D01*
X0116900Y0106614D02*
X0085380Y0106614D01*
X0086979Y0105015D02*
X0116900Y0105015D01*
X0116900Y0103417D02*
X0088577Y0103417D01*
X0090176Y0101818D02*
X0116900Y0101818D01*
X0116900Y0100220D02*
X0091774Y0100220D01*
X0093373Y0098621D02*
X0116900Y0098621D01*
X0116900Y0097023D02*
X0096363Y0097023D01*
X0097497Y0095424D02*
X0116900Y0095424D01*
X0116900Y0093826D02*
X0097684Y0093826D01*
X0097013Y0092227D02*
X0116900Y0092227D01*
X0116900Y0090629D02*
X0062413Y0090629D01*
X0062964Y0089030D02*
X0083413Y0089030D01*
X0084300Y0086800D02*
X0069300Y0071800D01*
X0066800Y0071800D01*
X0061800Y0076800D01*
X0061800Y0086800D01*
X0059300Y0089300D01*
X0059290Y0085916D02*
X0058627Y0085916D01*
X0057383Y0086431D01*
X0056700Y0087114D01*
X0056700Y0069186D01*
X0057169Y0068717D01*
X0057684Y0067473D01*
X0057684Y0066127D01*
X0057169Y0064883D01*
X0056700Y0064414D01*
X0056700Y0045294D01*
X0062794Y0039200D01*
X0084614Y0039200D01*
X0083931Y0039883D01*
X0083416Y0041127D01*
X0083416Y0042473D01*
X0083931Y0043717D01*
X0084883Y0044669D01*
X0086127Y0045184D01*
X0086790Y0045184D01*
X0096900Y0055294D01*
X0096900Y0064614D01*
X0096217Y0063931D01*
X0094973Y0063416D01*
X0093627Y0063416D01*
X0092383Y0063931D01*
X0091431Y0064883D01*
X0090916Y0066127D01*
X0090916Y0066790D01*
X0081790Y0075916D01*
X0081127Y0075916D01*
X0079883Y0076431D01*
X0078931Y0077383D01*
X0078739Y0077845D01*
X0071335Y0070441D01*
X0070659Y0069765D01*
X0069777Y0069400D01*
X0066323Y0069400D01*
X0065441Y0069765D01*
X0059765Y0075441D01*
X0059400Y0076323D01*
X0059400Y0085806D01*
X0059290Y0085916D01*
X0059373Y0085833D02*
X0056700Y0085833D01*
X0056700Y0084235D02*
X0059400Y0084235D01*
X0059400Y0082636D02*
X0056700Y0082636D01*
X0056700Y0081038D02*
X0059400Y0081038D01*
X0059400Y0079439D02*
X0056700Y0079439D01*
X0056700Y0077841D02*
X0059400Y0077841D01*
X0059433Y0076242D02*
X0056700Y0076242D01*
X0056700Y0074644D02*
X0060562Y0074644D01*
X0062161Y0073045D02*
X0056700Y0073045D01*
X0056700Y0071447D02*
X0063759Y0071447D01*
X0065358Y0069848D02*
X0056700Y0069848D01*
X0057363Y0068250D02*
X0089456Y0068250D01*
X0090916Y0066651D02*
X0057684Y0066651D01*
X0057239Y0065053D02*
X0091361Y0065053D01*
X0093534Y0063454D02*
X0056700Y0063454D01*
X0056700Y0061856D02*
X0096900Y0061856D01*
X0096900Y0063454D02*
X0095066Y0063454D01*
X0094300Y0066800D02*
X0081800Y0079300D01*
X0078741Y0077841D02*
X0078735Y0077841D01*
X0077136Y0076242D02*
X0080339Y0076242D01*
X0083062Y0074644D02*
X0075538Y0074644D01*
X0073939Y0073045D02*
X0084661Y0073045D01*
X0086259Y0071447D02*
X0072341Y0071447D01*
X0070742Y0069848D02*
X0087858Y0069848D01*
X0094300Y0076800D02*
X0094300Y0079300D01*
X0096800Y0081800D01*
X0099300Y0081800D01*
X0101651Y0084235D02*
X0107079Y0084235D01*
X0109300Y0086800D02*
X0084300Y0086800D01*
X0081538Y0087432D02*
X0064136Y0087432D01*
X0064200Y0085833D02*
X0079939Y0085833D01*
X0078341Y0084235D02*
X0064200Y0084235D01*
X0064200Y0082636D02*
X0076742Y0082636D01*
X0075144Y0081038D02*
X0064200Y0081038D01*
X0064200Y0079439D02*
X0073545Y0079439D01*
X0071947Y0077841D02*
X0064200Y0077841D01*
X0065752Y0076242D02*
X0070348Y0076242D01*
X0068750Y0074644D02*
X0067350Y0074644D01*
X0054300Y0066800D02*
X0054300Y0089300D01*
X0051800Y0091800D01*
X0051800Y0119300D01*
X0054300Y0121800D01*
X0056688Y0124198D02*
X0059400Y0124198D01*
X0059400Y0125796D02*
X0021700Y0125796D01*
X0021700Y0125294D02*
X0021700Y0132114D01*
X0022383Y0131431D01*
X0023627Y0130916D01*
X0024973Y0130916D01*
X0026217Y0131431D01*
X0026686Y0131900D01*
X0053306Y0131900D01*
X0059400Y0125806D01*
X0059400Y0115294D01*
X0054200Y0110094D01*
X0054200Y0118306D01*
X0054310Y0118416D01*
X0054973Y0118416D01*
X0056217Y0118931D01*
X0057169Y0119883D01*
X0057684Y0121127D01*
X0057684Y0122473D01*
X0057169Y0123717D01*
X0056217Y0124669D01*
X0054973Y0125184D01*
X0053627Y0125184D01*
X0052383Y0124669D01*
X0051431Y0123717D01*
X0050916Y0122473D01*
X0050916Y0121810D01*
X0049765Y0120659D01*
X0049400Y0119777D01*
X0049400Y0092684D01*
X0048627Y0092684D01*
X0047383Y0092169D01*
X0046914Y0091700D01*
X0036700Y0091700D01*
X0036700Y0105806D01*
X0039310Y0108416D01*
X0039973Y0108416D01*
X0041217Y0108931D01*
X0042169Y0109883D01*
X0042684Y0111127D01*
X0042684Y0112473D01*
X0042169Y0113717D01*
X0041217Y0114669D01*
X0039973Y0115184D01*
X0038627Y0115184D01*
X0037383Y0114669D01*
X0036431Y0113717D01*
X0035916Y0112473D01*
X0035916Y0111810D01*
X0032941Y0108835D01*
X0032941Y0108835D01*
X0032265Y0108159D01*
X0031900Y0107277D01*
X0031900Y0082794D01*
X0024200Y0075094D01*
X0024200Y0122277D01*
X0023835Y0123159D01*
X0021700Y0125294D01*
X0022797Y0124198D02*
X0051911Y0124198D01*
X0050968Y0122599D02*
X0024067Y0122599D01*
X0024200Y0121001D02*
X0050106Y0121001D01*
X0049400Y0119402D02*
X0024200Y0119402D01*
X0024200Y0117803D02*
X0049400Y0117803D01*
X0049400Y0116205D02*
X0024200Y0116205D01*
X0024200Y0114606D02*
X0037320Y0114606D01*
X0036137Y0113008D02*
X0024200Y0113008D01*
X0024200Y0111409D02*
X0035515Y0111409D01*
X0033917Y0109811D02*
X0024200Y0109811D01*
X0024200Y0108212D02*
X0032318Y0108212D01*
X0031900Y0106614D02*
X0024200Y0106614D01*
X0024200Y0105015D02*
X0031900Y0105015D01*
X0031900Y0103417D02*
X0024200Y0103417D01*
X0024200Y0101818D02*
X0031900Y0101818D01*
X0031900Y0100220D02*
X0024200Y0100220D01*
X0024200Y0098621D02*
X0031900Y0098621D01*
X0031900Y0097023D02*
X0024200Y0097023D01*
X0024200Y0095424D02*
X0031900Y0095424D01*
X0031900Y0093826D02*
X0024200Y0093826D01*
X0024200Y0092227D02*
X0031900Y0092227D01*
X0031900Y0090629D02*
X0024200Y0090629D01*
X0024200Y0089030D02*
X0031900Y0089030D01*
X0031900Y0087432D02*
X0024200Y0087432D01*
X0024200Y0085833D02*
X0031900Y0085833D01*
X0031900Y0084235D02*
X0024200Y0084235D01*
X0024200Y0082636D02*
X0031742Y0082636D01*
X0030144Y0081038D02*
X0024200Y0081038D01*
X0024200Y0079439D02*
X0028545Y0079439D01*
X0026947Y0077841D02*
X0024200Y0077841D01*
X0024200Y0076242D02*
X0025348Y0076242D01*
X0028939Y0073045D02*
X0051900Y0073045D01*
X0051900Y0071447D02*
X0027341Y0071447D01*
X0025742Y0069848D02*
X0051900Y0069848D01*
X0051900Y0069186D02*
X0051431Y0068717D01*
X0050916Y0067473D01*
X0050916Y0066127D01*
X0051431Y0064883D01*
X0051900Y0064414D01*
X0051900Y0045094D01*
X0042140Y0054854D01*
X0042169Y0054883D01*
X0042684Y0056127D01*
X0042684Y0057473D01*
X0042169Y0058717D01*
X0041217Y0059669D01*
X0039973Y0060184D01*
X0038627Y0060184D01*
X0037383Y0059669D01*
X0036914Y0059200D01*
X0025294Y0059200D01*
X0018250Y0066244D01*
X0018700Y0066694D01*
X0018785Y0066900D01*
X0022277Y0066900D01*
X0023159Y0067265D01*
X0023835Y0067941D01*
X0036335Y0080441D01*
X0036700Y0081323D01*
X0036700Y0086900D01*
X0046914Y0086900D01*
X0047383Y0086431D01*
X0048627Y0085916D01*
X0049973Y0085916D01*
X0051217Y0086431D01*
X0051900Y0087114D01*
X0051900Y0069186D01*
X0051237Y0068250D02*
X0024144Y0068250D01*
X0023835Y0067941D02*
X0023835Y0067941D01*
X0021800Y0069300D02*
X0021800Y0121800D01*
X0019300Y0124300D01*
X0019300Y0134300D01*
X0024300Y0139300D01*
X0024300Y0159300D01*
X0029300Y0164300D01*
X0024700Y0164160D02*
X0023900Y0164160D01*
X0024700Y0163094D02*
X0022941Y0161335D01*
X0022265Y0160659D01*
X0021900Y0159777D01*
X0021900Y0158205D01*
X0021205Y0158900D01*
X0017395Y0158900D01*
X0014700Y0156205D01*
X0014700Y0152395D01*
X0017395Y0149700D01*
X0021205Y0149700D01*
X0021900Y0150395D01*
X0021900Y0140294D01*
X0017941Y0136335D01*
X0017941Y0136335D01*
X0017265Y0135659D01*
X0016900Y0134777D01*
X0016900Y0123823D01*
X0017265Y0122941D01*
X0019400Y0120806D01*
X0019400Y0071700D01*
X0018785Y0071700D01*
X0018700Y0071906D01*
X0017406Y0073200D01*
X0015715Y0073900D01*
X0007885Y0073900D01*
X0007400Y0073699D01*
X0007400Y0074901D01*
X0007885Y0074700D01*
X0015715Y0074700D01*
X0017406Y0075400D01*
X0018700Y0076694D01*
X0019400Y0078385D01*
X0019400Y0080215D01*
X0018700Y0081906D01*
X0017406Y0083200D01*
X0015715Y0083900D01*
X0007885Y0083900D01*
X0007400Y0083699D01*
X0007400Y0084901D01*
X0007885Y0084700D01*
X0015715Y0084700D01*
X0017406Y0085400D01*
X0018700Y0086694D01*
X0019400Y0088385D01*
X0019400Y0090215D01*
X0018700Y0091906D01*
X0017406Y0093200D01*
X0015715Y0093900D01*
X0007885Y0093900D01*
X0007400Y0093699D01*
X0007400Y0094901D01*
X0007885Y0094700D01*
X0015715Y0094700D01*
X0017406Y0095400D01*
X0018700Y0096694D01*
X0019400Y0098385D01*
X0019400Y0100215D01*
X0018700Y0101906D01*
X0017406Y0103200D01*
X0015715Y0103900D01*
X0007885Y0103900D01*
X0007400Y0103699D01*
X0007400Y0104901D01*
X0007885Y0104700D01*
X0015715Y0104700D01*
X0017406Y0105400D01*
X0018700Y0106694D01*
X0019400Y0108385D01*
X0019400Y0110215D01*
X0018700Y0111906D01*
X0017406Y0113200D01*
X0015715Y0113900D01*
X0007885Y0113900D01*
X0007400Y0113699D01*
X0007400Y0149881D01*
X0007457Y0149852D01*
X0008176Y0149618D01*
X0008922Y0149500D01*
X0009100Y0149500D01*
X0009100Y0151700D01*
X0009500Y0151700D01*
X0009500Y0149500D01*
X0009678Y0149500D01*
X0010424Y0149618D01*
X0011143Y0149852D01*
X0011816Y0150195D01*
X0012427Y0150639D01*
X0012961Y0151173D01*
X0013405Y0151784D01*
X0013748Y0152457D01*
X0013982Y0153176D01*
X0014100Y0153922D01*
X0014100Y0154100D01*
X0011900Y0154100D01*
X0011900Y0154500D01*
X0014100Y0154500D01*
X0014100Y0154678D01*
X0013982Y0155424D01*
X0013748Y0156143D01*
X0013405Y0156816D01*
X0012961Y0157427D01*
X0012427Y0157961D01*
X0011816Y0158405D01*
X0011143Y0158748D01*
X0010424Y0158982D01*
X0009678Y0159100D01*
X0009500Y0159100D01*
X0009500Y0156900D01*
X0009100Y0156900D01*
X0009100Y0159100D01*
X0008922Y0159100D01*
X0008176Y0158982D01*
X0007457Y0158748D01*
X0007400Y0158719D01*
X0007400Y0159700D01*
X0011205Y0159700D01*
X0013900Y0162395D01*
X0013900Y0166200D01*
X0014700Y0166200D01*
X0014700Y0162395D01*
X0017395Y0159700D01*
X0021205Y0159700D01*
X0023900Y0162395D01*
X0023900Y0166200D01*
X0024700Y0166200D01*
X0024700Y0163094D01*
X0024168Y0162562D02*
X0023900Y0162562D01*
X0022569Y0160963D02*
X0022469Y0160963D01*
X0021900Y0159365D02*
X0007400Y0159365D01*
X0009100Y0157766D02*
X0009500Y0157766D01*
X0012622Y0157766D02*
X0016261Y0157766D01*
X0014700Y0156168D02*
X0013735Y0156168D01*
X0014100Y0154569D02*
X0014700Y0154569D01*
X0014700Y0152971D02*
X0013915Y0152971D01*
X0013106Y0151372D02*
X0015722Y0151372D01*
X0017321Y0149774D02*
X0010903Y0149774D01*
X0009500Y0149774D02*
X0009100Y0149774D01*
X0007697Y0149774D02*
X0007400Y0149774D01*
X0007400Y0148175D02*
X0021900Y0148175D01*
X0021900Y0146577D02*
X0007400Y0146577D01*
X0007400Y0144978D02*
X0021900Y0144978D01*
X0021900Y0143380D02*
X0007400Y0143380D01*
X0007400Y0141781D02*
X0021900Y0141781D01*
X0021789Y0140183D02*
X0007400Y0140183D01*
X0007400Y0138584D02*
X0020190Y0138584D01*
X0018592Y0136986D02*
X0007400Y0136986D01*
X0007400Y0135387D02*
X0017153Y0135387D01*
X0016900Y0133789D02*
X0007400Y0133789D01*
X0007400Y0132190D02*
X0016900Y0132190D01*
X0016900Y0130592D02*
X0007400Y0130592D01*
X0007400Y0128993D02*
X0016900Y0128993D01*
X0016900Y0127395D02*
X0007400Y0127395D01*
X0007400Y0125796D02*
X0016900Y0125796D01*
X0016900Y0124198D02*
X0007400Y0124198D01*
X0007400Y0122599D02*
X0017607Y0122599D01*
X0019205Y0121001D02*
X0007400Y0121001D01*
X0007400Y0119402D02*
X0019400Y0119402D01*
X0019400Y0117803D02*
X0007400Y0117803D01*
X0007400Y0116205D02*
X0019400Y0116205D01*
X0019400Y0114606D02*
X0007400Y0114606D01*
X0017597Y0113008D02*
X0019400Y0113008D01*
X0019400Y0111409D02*
X0018905Y0111409D01*
X0019400Y0109811D02*
X0019400Y0109811D01*
X0019400Y0108212D02*
X0019329Y0108212D01*
X0019400Y0106614D02*
X0018619Y0106614D01*
X0019400Y0105015D02*
X0016476Y0105015D01*
X0016881Y0103417D02*
X0019400Y0103417D01*
X0019400Y0101818D02*
X0018736Y0101818D01*
X0019398Y0100220D02*
X0019400Y0100220D01*
X0019400Y0098621D02*
X0019400Y0098621D01*
X0019400Y0097023D02*
X0018836Y0097023D01*
X0019400Y0095424D02*
X0017430Y0095424D01*
X0015894Y0093826D02*
X0019400Y0093826D01*
X0019400Y0092227D02*
X0018378Y0092227D01*
X0019229Y0090629D02*
X0019400Y0090629D01*
X0019400Y0089030D02*
X0019400Y0089030D01*
X0019400Y0087432D02*
X0019005Y0087432D01*
X0019400Y0085833D02*
X0017839Y0085833D01*
X0019400Y0084235D02*
X0007400Y0084235D01*
X0007400Y0093826D02*
X0007706Y0093826D01*
X0017969Y0082636D02*
X0019400Y0082636D01*
X0019400Y0081038D02*
X0019059Y0081038D01*
X0019400Y0079439D02*
X0019400Y0079439D01*
X0019400Y0077841D02*
X0019175Y0077841D01*
X0019400Y0076242D02*
X0018248Y0076242D01*
X0019400Y0074644D02*
X0007400Y0074644D01*
X0011800Y0069300D02*
X0006800Y0064300D01*
X0006800Y0029300D01*
X0014300Y0021800D01*
X0014300Y0014300D01*
X0009300Y0009300D01*
X0013900Y0009105D02*
X0014700Y0009105D01*
X0014700Y0010703D02*
X0014097Y0010703D01*
X0013900Y0010506D02*
X0015659Y0012265D01*
X0016335Y0012941D01*
X0016700Y0013823D01*
X0016700Y0015395D01*
X0017395Y0014700D01*
X0021205Y0014700D01*
X0023900Y0017395D01*
X0023900Y0020916D01*
X0024778Y0020916D01*
X0024618Y0020424D01*
X0024500Y0019678D01*
X0024500Y0019500D01*
X0026700Y0019500D01*
X0026700Y0019100D01*
X0024500Y0019100D01*
X0024500Y0018922D01*
X0024618Y0018176D01*
X0024852Y0017457D01*
X0025195Y0016784D01*
X0025639Y0016173D01*
X0026173Y0015639D01*
X0026784Y0015195D01*
X0027457Y0014852D01*
X0028176Y0014618D01*
X0028922Y0014500D01*
X0029100Y0014500D01*
X0029100Y0016700D01*
X0029500Y0016700D01*
X0029500Y0014500D01*
X0029678Y0014500D01*
X0030424Y0014618D01*
X0031143Y0014852D01*
X0031816Y0015195D01*
X0032427Y0015639D01*
X0032961Y0016173D01*
X0033405Y0016784D01*
X0033748Y0017457D01*
X0033982Y0018176D01*
X0034100Y0018922D01*
X0034100Y0019100D01*
X0031900Y0019100D01*
X0031900Y0019500D01*
X0034100Y0019500D01*
X0034100Y0019678D01*
X0033982Y0020424D01*
X0033748Y0021143D01*
X0033405Y0021816D01*
X0033344Y0021900D01*
X0063306Y0021900D01*
X0064765Y0020441D01*
X0065441Y0019765D01*
X0066323Y0019400D01*
X0098306Y0019400D01*
X0098724Y0018982D01*
X0097715Y0019400D01*
X0095885Y0019400D01*
X0094194Y0018700D01*
X0092900Y0017406D01*
X0092200Y0015715D01*
X0092200Y0007885D01*
X0092401Y0007400D01*
X0091199Y0007400D01*
X0091400Y0007885D01*
X0091400Y0015715D01*
X0090700Y0017406D01*
X0089406Y0018700D01*
X0087715Y0019400D01*
X0085885Y0019400D01*
X0084194Y0018700D01*
X0082900Y0017406D01*
X0082200Y0015715D01*
X0082200Y0007885D01*
X0082401Y0007400D01*
X0081199Y0007400D01*
X0081400Y0007885D01*
X0081400Y0015715D01*
X0080700Y0017406D01*
X0079406Y0018700D01*
X0077715Y0019400D01*
X0075885Y0019400D01*
X0074194Y0018700D01*
X0072900Y0017406D01*
X0072200Y0015715D01*
X0072200Y0007885D01*
X0072401Y0007400D01*
X0071199Y0007400D01*
X0071400Y0007885D01*
X0071400Y0015715D01*
X0070700Y0017406D01*
X0069406Y0018700D01*
X0067715Y0019400D01*
X0065885Y0019400D01*
X0064194Y0018700D01*
X0062900Y0017406D01*
X0062200Y0015715D01*
X0062200Y0007885D01*
X0062401Y0007400D01*
X0033900Y0007400D01*
X0033900Y0011205D01*
X0031205Y0013900D01*
X0027395Y0013900D01*
X0024700Y0011205D01*
X0024700Y0007400D01*
X0023900Y0007400D01*
X0023900Y0011205D01*
X0021205Y0013900D01*
X0017395Y0013900D01*
X0014700Y0011205D01*
X0014700Y0007400D01*
X0013900Y0007400D01*
X0013900Y0010506D01*
X0015696Y0012302D02*
X0015796Y0012302D01*
X0016700Y0013900D02*
X0062200Y0013900D01*
X0062200Y0012302D02*
X0032804Y0012302D01*
X0033900Y0010703D02*
X0062200Y0010703D01*
X0062200Y0009105D02*
X0033900Y0009105D01*
X0033900Y0007506D02*
X0062357Y0007506D01*
X0062200Y0015499D02*
X0032234Y0015499D01*
X0033565Y0017097D02*
X0062773Y0017097D01*
X0064190Y0018696D02*
X0034064Y0018696D01*
X0034002Y0020294D02*
X0064912Y0020294D01*
X0063313Y0021893D02*
X0033349Y0021893D01*
X0028159Y0027265D02*
X0035659Y0034765D01*
X0036335Y0035441D01*
X0036700Y0036323D01*
X0036700Y0039414D01*
X0037169Y0039883D01*
X0037684Y0041127D01*
X0037684Y0042473D01*
X0037169Y0043717D01*
X0036217Y0044669D01*
X0034973Y0045184D01*
X0033627Y0045184D01*
X0032383Y0044669D01*
X0031431Y0043717D01*
X0030916Y0042473D01*
X0030916Y0041127D01*
X0031431Y0039883D01*
X0031900Y0039414D01*
X0031900Y0037794D01*
X0025806Y0031700D01*
X0021323Y0031700D01*
X0020441Y0031335D01*
X0019765Y0030659D01*
X0017265Y0028159D01*
X0016900Y0027277D01*
X0016900Y0023405D01*
X0016428Y0022934D01*
X0016335Y0023159D01*
X0009200Y0030294D01*
X0009200Y0032691D01*
X0010385Y0032200D01*
X0018215Y0032200D01*
X0019906Y0032900D01*
X0021200Y0034194D01*
X0021900Y0035885D01*
X0021900Y0037715D01*
X0021200Y0039406D01*
X0019906Y0040700D01*
X0018215Y0041400D01*
X0010385Y0041400D01*
X0009200Y0040909D01*
X0009200Y0042691D01*
X0010385Y0042200D01*
X0018215Y0042200D01*
X0019906Y0042900D01*
X0021200Y0044194D01*
X0021900Y0045885D01*
X0021900Y0047715D01*
X0021200Y0049406D01*
X0019906Y0050700D01*
X0018215Y0051400D01*
X0010385Y0051400D01*
X0009200Y0050909D01*
X0009200Y0052483D01*
X0009457Y0052352D01*
X0010176Y0052118D01*
X0010922Y0052000D01*
X0014100Y0052000D01*
X0014100Y0056600D01*
X0014500Y0056600D01*
X0014500Y0052000D01*
X0017678Y0052000D01*
X0018424Y0052118D01*
X0019143Y0052352D01*
X0019816Y0052695D01*
X0020427Y0053139D01*
X0020961Y0053673D01*
X0021405Y0054284D01*
X0021748Y0054957D01*
X0021982Y0055676D01*
X0021988Y0055718D01*
X0022941Y0054765D01*
X0023823Y0054400D01*
X0036900Y0054400D01*
X0036900Y0053823D01*
X0037265Y0052941D01*
X0037941Y0052265D01*
X0018874Y0052265D01*
X0019939Y0050666D02*
X0039540Y0050666D01*
X0041138Y0049068D02*
X0021340Y0049068D01*
X0021900Y0047469D02*
X0042737Y0047469D01*
X0044335Y0045870D02*
X0021894Y0045870D01*
X0021232Y0044272D02*
X0031986Y0044272D01*
X0030999Y0042673D02*
X0019358Y0042673D01*
X0019000Y0041075D02*
X0030937Y0041075D01*
X0031837Y0039476D02*
X0021129Y0039476D01*
X0021833Y0037878D02*
X0031900Y0037878D01*
X0030385Y0036279D02*
X0021900Y0036279D01*
X0021401Y0034681D02*
X0028787Y0034681D01*
X0027188Y0033082D02*
X0020088Y0033082D01*
X0020801Y0031484D02*
X0009200Y0031484D01*
X0009609Y0029885D02*
X0018991Y0029885D01*
X0017393Y0028287D02*
X0011207Y0028287D01*
X0012806Y0026688D02*
X0016900Y0026688D01*
X0016900Y0025090D02*
X0014404Y0025090D01*
X0016003Y0023491D02*
X0016900Y0023491D01*
X0019300Y0026800D02*
X0019300Y0019300D01*
X0023900Y0018696D02*
X0024536Y0018696D01*
X0024598Y0020294D02*
X0023900Y0020294D01*
X0023603Y0017097D02*
X0025035Y0017097D01*
X0026366Y0015499D02*
X0022004Y0015499D01*
X0022804Y0012302D02*
X0025796Y0012302D01*
X0024700Y0010703D02*
X0023900Y0010703D01*
X0023900Y0009105D02*
X0024700Y0009105D01*
X0024700Y0007506D02*
X0023900Y0007506D01*
X0029100Y0015499D02*
X0029500Y0015499D01*
X0024300Y0024300D02*
X0064300Y0024300D01*
X0066800Y0021800D01*
X0099300Y0021800D01*
X0106800Y0014300D01*
X0106800Y0011800D01*
X0114300Y0011800D01*
X0119300Y0016800D01*
X0119300Y0039300D01*
X0116800Y0036800D01*
X0061800Y0036800D01*
X0054300Y0044300D01*
X0054300Y0066800D01*
X0050916Y0066651D02*
X0018656Y0066651D01*
X0019441Y0065053D02*
X0051361Y0065053D01*
X0051900Y0063454D02*
X0021040Y0063454D01*
X0022638Y0061856D02*
X0051900Y0061856D01*
X0051900Y0060257D02*
X0024237Y0060257D01*
X0024300Y0056800D02*
X0011800Y0069300D01*
X0021800Y0069300D01*
X0034300Y0081800D01*
X0034300Y0089300D01*
X0049300Y0089300D01*
X0047524Y0092227D02*
X0036700Y0092227D01*
X0036700Y0093826D02*
X0049400Y0093826D01*
X0049400Y0095424D02*
X0036700Y0095424D01*
X0036700Y0097023D02*
X0049400Y0097023D01*
X0049400Y0098621D02*
X0036700Y0098621D01*
X0036700Y0100220D02*
X0049400Y0100220D01*
X0049400Y0101818D02*
X0036700Y0101818D01*
X0036700Y0103417D02*
X0049400Y0103417D01*
X0049400Y0105015D02*
X0036700Y0105015D01*
X0037508Y0106614D02*
X0049400Y0106614D01*
X0049400Y0108212D02*
X0039107Y0108212D01*
X0042097Y0109811D02*
X0049400Y0109811D01*
X0049400Y0111409D02*
X0042684Y0111409D01*
X0042463Y0113008D02*
X0049400Y0113008D01*
X0049400Y0114606D02*
X0041280Y0114606D01*
X0039300Y0111800D02*
X0034300Y0106800D01*
X0034300Y0089300D01*
X0036700Y0085833D02*
X0051900Y0085833D01*
X0051900Y0084235D02*
X0036700Y0084235D01*
X0036700Y0082636D02*
X0051900Y0082636D01*
X0051900Y0081038D02*
X0036582Y0081038D01*
X0035333Y0079439D02*
X0051900Y0079439D01*
X0051900Y0077841D02*
X0033735Y0077841D01*
X0032136Y0076242D02*
X0051900Y0076242D01*
X0051900Y0074644D02*
X0030538Y0074644D01*
X0019400Y0073045D02*
X0017560Y0073045D01*
X0013006Y0064700D02*
X0010594Y0064700D01*
X0009200Y0063306D01*
X0009200Y0061117D01*
X0009457Y0061248D01*
X0010176Y0061482D01*
X0010922Y0061600D01*
X0014100Y0061600D01*
X0014100Y0057000D01*
X0014500Y0057000D01*
X0014500Y0061600D01*
X0016106Y0061600D01*
X0013006Y0064700D01*
X0014252Y0063454D02*
X0009348Y0063454D01*
X0009200Y0061856D02*
X0015850Y0061856D01*
X0014500Y0060257D02*
X0014100Y0060257D01*
X0014100Y0058659D02*
X0014500Y0058659D01*
X0014500Y0057060D02*
X0014100Y0057060D01*
X0014100Y0055462D02*
X0014500Y0055462D01*
X0014500Y0053863D02*
X0014100Y0053863D01*
X0014100Y0052265D02*
X0014500Y0052265D01*
X0009726Y0052265D02*
X0009200Y0052265D01*
X0009200Y0042673D02*
X0009242Y0042673D01*
X0009200Y0041075D02*
X0009600Y0041075D01*
X0021800Y0029300D02*
X0026800Y0029300D01*
X0034300Y0036800D01*
X0034300Y0041800D01*
X0036762Y0039476D02*
X0050729Y0039476D01*
X0049131Y0041075D02*
X0037663Y0041075D01*
X0037601Y0042673D02*
X0047532Y0042673D01*
X0045934Y0044272D02*
X0036614Y0044272D01*
X0036700Y0037878D02*
X0052328Y0037878D01*
X0053926Y0036279D02*
X0036682Y0036279D01*
X0035575Y0034681D02*
X0055525Y0034681D01*
X0057123Y0033082D02*
X0033977Y0033082D01*
X0032378Y0031484D02*
X0058722Y0031484D01*
X0060321Y0029885D02*
X0030779Y0029885D01*
X0029181Y0028287D02*
X0061919Y0028287D01*
X0063506Y0026700D02*
X0026686Y0026700D01*
X0026486Y0026900D01*
X0027277Y0026900D01*
X0028159Y0027265D01*
X0021800Y0029300D02*
X0019300Y0026800D01*
X0014700Y0007506D02*
X0013900Y0007506D01*
X0051124Y0045870D02*
X0051900Y0045870D01*
X0051900Y0047469D02*
X0049525Y0047469D01*
X0047927Y0049068D02*
X0051900Y0049068D01*
X0051900Y0050666D02*
X0046328Y0050666D01*
X0044730Y0052265D02*
X0051900Y0052265D01*
X0051900Y0053863D02*
X0043131Y0053863D01*
X0042409Y0055462D02*
X0051900Y0055462D01*
X0051900Y0057060D02*
X0042684Y0057060D01*
X0042193Y0058659D02*
X0051900Y0058659D01*
X0056700Y0058659D02*
X0096900Y0058659D01*
X0096900Y0060257D02*
X0056700Y0060257D01*
X0056700Y0057060D02*
X0096900Y0057060D01*
X0096900Y0055462D02*
X0056700Y0055462D01*
X0056700Y0053863D02*
X0095469Y0053863D01*
X0093870Y0052265D02*
X0056700Y0052265D01*
X0056700Y0050666D02*
X0092272Y0050666D01*
X0090673Y0049068D02*
X0056700Y0049068D01*
X0056700Y0047469D02*
X0089075Y0047469D01*
X0087476Y0045870D02*
X0056700Y0045870D01*
X0057722Y0044272D02*
X0084486Y0044272D01*
X0083499Y0042673D02*
X0059321Y0042673D01*
X0060919Y0041075D02*
X0083437Y0041075D01*
X0084338Y0039476D02*
X0062518Y0039476D01*
X0063506Y0026700D02*
X0037941Y0052265D01*
X0036900Y0053863D02*
X0021099Y0053863D01*
X0021912Y0055462D02*
X0022244Y0055462D01*
X0024300Y0056800D02*
X0039300Y0056800D01*
X0039300Y0054300D01*
X0069300Y0024300D01*
X0101800Y0024300D01*
X0106800Y0029300D02*
X0086800Y0029300D01*
X0084300Y0026800D01*
X0079300Y0026800D01*
X0076800Y0029300D01*
X0076800Y0031800D01*
X0081800Y0031800D02*
X0109300Y0031800D01*
X0111800Y0029300D01*
X0111800Y0024300D01*
X0114300Y0021800D01*
X0109300Y0021800D02*
X0109300Y0026800D01*
X0106800Y0029300D01*
X0109300Y0021800D02*
X0114300Y0016800D01*
X0121700Y0025090D02*
X0123399Y0025090D01*
X0125201Y0025090D02*
X0130899Y0025090D01*
X0128837Y0023491D02*
X0127263Y0023491D01*
X0127684Y0021893D02*
X0128416Y0021893D01*
X0131800Y0021800D02*
X0134300Y0024300D01*
X0156800Y0024300D01*
X0159300Y0021800D01*
X0159300Y0014300D01*
X0164300Y0009300D01*
X0163094Y0013900D02*
X0161815Y0015179D01*
X0162457Y0014852D01*
X0163176Y0014618D01*
X0163922Y0014500D01*
X0164100Y0014500D01*
X0164100Y0016700D01*
X0164500Y0016700D01*
X0164500Y0014500D01*
X0164678Y0014500D01*
X0165424Y0014618D01*
X0166143Y0014852D01*
X0166200Y0014881D01*
X0166200Y0013900D01*
X0163094Y0013900D01*
X0166200Y0013900D01*
X0164500Y0015499D02*
X0164100Y0015499D01*
X0164100Y0023491D02*
X0164500Y0023491D01*
X0166200Y0025090D02*
X0159404Y0025090D01*
X0161003Y0023491D02*
X0161953Y0023491D01*
X0166200Y0026688D02*
X0157305Y0026688D01*
X0166200Y0028287D02*
X0147543Y0028287D01*
X0147684Y0029885D02*
X0166200Y0029885D01*
X0149300Y0014300D02*
X0131800Y0014300D01*
X0124300Y0021800D01*
X0121700Y0026688D02*
X0133795Y0026688D01*
X0141057Y0028287D02*
X0121700Y0028287D01*
X0121700Y0029885D02*
X0140916Y0029885D01*
X0141698Y0031484D02*
X0121700Y0031484D01*
X0121700Y0033082D02*
X0141900Y0033082D01*
X0141900Y0034681D02*
X0121700Y0034681D01*
X0121700Y0036279D02*
X0141900Y0036279D01*
X0141900Y0037878D02*
X0121700Y0037878D01*
X0121700Y0039476D02*
X0141900Y0039476D01*
X0141900Y0041075D02*
X0121700Y0041075D01*
X0121700Y0042673D02*
X0141900Y0042673D01*
X0141900Y0044272D02*
X0121700Y0044272D01*
X0121700Y0045870D02*
X0141900Y0045870D01*
X0141900Y0047469D02*
X0121700Y0047469D01*
X0121700Y0049068D02*
X0132246Y0049068D01*
X0131107Y0050666D02*
X0121700Y0050666D01*
X0121700Y0052265D02*
X0130916Y0052265D01*
X0131577Y0053863D02*
X0121700Y0053863D01*
X0122409Y0055462D02*
X0134567Y0055462D01*
X0136166Y0057060D02*
X0122684Y0057060D01*
X0122193Y0058659D02*
X0137764Y0058659D01*
X0139363Y0060257D02*
X0121700Y0060257D01*
X0121700Y0061856D02*
X0139400Y0061856D01*
X0139400Y0063454D02*
X0121700Y0063454D01*
X0121700Y0065053D02*
X0139400Y0065053D01*
X0139400Y0066651D02*
X0121700Y0066651D01*
X0121700Y0068250D02*
X0139400Y0068250D01*
X0139400Y0069848D02*
X0121700Y0069848D01*
X0121700Y0071447D02*
X0139400Y0071447D01*
X0139400Y0073045D02*
X0121700Y0073045D01*
X0121700Y0074644D02*
X0139400Y0074644D01*
X0139400Y0076242D02*
X0121700Y0076242D01*
X0121700Y0077841D02*
X0139400Y0077841D01*
X0139400Y0079439D02*
X0121700Y0079439D01*
X0121700Y0081038D02*
X0139400Y0081038D01*
X0139400Y0082636D02*
X0121700Y0082636D01*
X0121700Y0084235D02*
X0139400Y0084235D01*
X0139400Y0085833D02*
X0121700Y0085833D01*
X0121700Y0087432D02*
X0138911Y0087432D01*
X0138416Y0089030D02*
X0121700Y0089030D01*
X0116900Y0089030D02*
X0111856Y0089030D01*
X0112684Y0087432D02*
X0116900Y0087432D01*
X0116900Y0085833D02*
X0112563Y0085833D01*
X0111521Y0084235D02*
X0116900Y0084235D01*
X0116900Y0082636D02*
X0102617Y0082636D01*
X0102647Y0081038D02*
X0116900Y0081038D01*
X0116900Y0079439D02*
X0101725Y0079439D01*
X0102532Y0077841D02*
X0116900Y0077841D01*
X0116900Y0076242D02*
X0103252Y0076242D01*
X0104850Y0074644D02*
X0116900Y0074644D01*
X0116900Y0073045D02*
X0106382Y0073045D01*
X0106700Y0071447D02*
X0116900Y0071447D01*
X0116900Y0069848D02*
X0106700Y0069848D01*
X0106700Y0068250D02*
X0116900Y0068250D01*
X0116900Y0066651D02*
X0106700Y0066651D01*
X0106700Y0065053D02*
X0116900Y0065053D01*
X0116900Y0063454D02*
X0106700Y0063454D01*
X0106700Y0061856D02*
X0116900Y0061856D01*
X0116900Y0060257D02*
X0106700Y0060257D01*
X0106700Y0058659D02*
X0116407Y0058659D01*
X0115916Y0057060D02*
X0106700Y0057060D01*
X0106700Y0055462D02*
X0116191Y0055462D01*
X0119300Y0056800D02*
X0119300Y0109300D01*
X0126900Y0114606D02*
X0078780Y0114606D01*
X0076800Y0111800D02*
X0094300Y0094300D01*
X0091587Y0092227D02*
X0061076Y0092227D01*
X0057524Y0092227D02*
X0054767Y0092227D01*
X0054200Y0093826D02*
X0090916Y0093826D01*
X0089782Y0095424D02*
X0054200Y0095424D01*
X0054200Y0097023D02*
X0056791Y0097023D01*
X0055918Y0098621D02*
X0054200Y0098621D01*
X0054200Y0100220D02*
X0054986Y0100220D01*
X0054300Y0104300D02*
X0054300Y0106800D01*
X0061800Y0114300D01*
X0061800Y0126800D01*
X0054300Y0134300D01*
X0024300Y0134300D01*
X0026686Y0136700D02*
X0026217Y0137169D01*
X0025755Y0137361D01*
X0026335Y0137941D01*
X0026700Y0138823D01*
X0026700Y0150395D01*
X0027395Y0149700D01*
X0031205Y0149700D01*
X0033900Y0152395D01*
X0033900Y0155916D01*
X0034290Y0155916D01*
X0053506Y0136700D01*
X0026686Y0136700D01*
X0026400Y0136986D02*
X0053220Y0136986D01*
X0051622Y0138584D02*
X0026601Y0138584D01*
X0026700Y0140183D02*
X0050023Y0140183D01*
X0048425Y0141781D02*
X0026700Y0141781D01*
X0026700Y0143380D02*
X0046826Y0143380D01*
X0045228Y0144978D02*
X0026700Y0144978D01*
X0026700Y0146577D02*
X0043629Y0146577D01*
X0042031Y0148175D02*
X0026700Y0148175D01*
X0026700Y0149774D02*
X0027321Y0149774D01*
X0031279Y0149774D02*
X0040432Y0149774D01*
X0038834Y0151372D02*
X0032878Y0151372D01*
X0033900Y0152971D02*
X0037235Y0152971D01*
X0035637Y0154569D02*
X0033900Y0154569D01*
X0034300Y0159300D02*
X0064300Y0129300D01*
X0064300Y0109300D01*
X0059300Y0104300D01*
X0061604Y0101818D02*
X0083388Y0101818D01*
X0084986Y0100220D02*
X0062582Y0100220D01*
X0062682Y0098621D02*
X0086585Y0098621D01*
X0088183Y0097023D02*
X0061809Y0097023D01*
X0059300Y0099300D02*
X0054300Y0104300D01*
X0054200Y0111409D02*
X0055515Y0111409D01*
X0054200Y0113008D02*
X0057114Y0113008D01*
X0058712Y0114606D02*
X0054200Y0114606D01*
X0054200Y0116205D02*
X0059400Y0116205D01*
X0059400Y0117803D02*
X0054200Y0117803D01*
X0056688Y0119402D02*
X0059400Y0119402D01*
X0059400Y0121001D02*
X0057632Y0121001D01*
X0057632Y0122599D02*
X0059400Y0122599D01*
X0057811Y0127395D02*
X0021700Y0127395D01*
X0021700Y0128993D02*
X0056213Y0128993D01*
X0054614Y0130592D02*
X0021700Y0130592D01*
X0029300Y0144300D02*
X0034300Y0149300D01*
X0040826Y0156168D02*
X0062779Y0156168D01*
X0062695Y0156284D02*
X0063139Y0155673D01*
X0063673Y0155139D01*
X0064284Y0154695D01*
X0064957Y0154352D01*
X0065676Y0154118D01*
X0066422Y0154000D01*
X0066600Y0154000D01*
X0066600Y0161600D01*
X0062000Y0161600D01*
X0062000Y0158422D01*
X0062118Y0157676D01*
X0062352Y0156957D01*
X0062695Y0156284D01*
X0062104Y0157766D02*
X0039228Y0157766D01*
X0037684Y0159365D02*
X0062000Y0159365D01*
X0062000Y0160963D02*
X0037274Y0160963D01*
X0035269Y0162562D02*
X0062000Y0162562D01*
X0062000Y0164160D02*
X0033900Y0164160D01*
X0033900Y0165759D02*
X0062092Y0165759D01*
X0066600Y0160963D02*
X0067000Y0160963D01*
X0067000Y0159365D02*
X0066600Y0159365D01*
X0066600Y0157766D02*
X0067000Y0157766D01*
X0067000Y0156168D02*
X0066600Y0156168D01*
X0066600Y0154569D02*
X0067000Y0154569D01*
X0068688Y0152971D02*
X0044023Y0152971D01*
X0042425Y0154569D02*
X0064530Y0154569D01*
X0070025Y0151372D02*
X0045622Y0151372D01*
X0047220Y0149774D02*
X0072932Y0149774D01*
X0074531Y0148175D02*
X0048819Y0148175D01*
X0050417Y0146577D02*
X0076129Y0146577D01*
X0077728Y0144978D02*
X0052016Y0144978D01*
X0053614Y0143380D02*
X0079326Y0143380D01*
X0080925Y0141781D02*
X0055213Y0141781D01*
X0056811Y0140183D02*
X0082523Y0140183D01*
X0084122Y0138584D02*
X0058410Y0138584D01*
X0060008Y0136986D02*
X0086116Y0136986D01*
X0086800Y0139300D02*
X0101800Y0139300D01*
X0104105Y0141781D02*
X0109400Y0141781D01*
X0109400Y0143380D02*
X0086114Y0143380D01*
X0084516Y0144978D02*
X0109400Y0144978D01*
X0109400Y0146577D02*
X0082917Y0146577D01*
X0081319Y0148175D02*
X0109400Y0148175D01*
X0109400Y0149774D02*
X0079720Y0149774D01*
X0078122Y0151372D02*
X0110478Y0151372D01*
X0112077Y0152971D02*
X0076523Y0152971D01*
X0078606Y0154569D02*
X0084994Y0154569D01*
X0082927Y0156168D02*
X0080673Y0156168D01*
X0081351Y0157766D02*
X0082249Y0157766D01*
X0082200Y0159365D02*
X0081400Y0159365D01*
X0081400Y0160963D02*
X0082200Y0160963D01*
X0082200Y0162562D02*
X0081400Y0162562D01*
X0081400Y0164160D02*
X0082200Y0164160D01*
X0082218Y0165759D02*
X0081382Y0165759D01*
X0072218Y0165759D02*
X0071508Y0165759D01*
X0071600Y0164160D02*
X0072200Y0164160D01*
X0072200Y0162562D02*
X0071600Y0162562D01*
X0071600Y0160963D02*
X0072200Y0160963D01*
X0072200Y0159365D02*
X0071600Y0159365D01*
X0071496Y0157766D02*
X0072249Y0157766D01*
X0071800Y0154300D02*
X0086800Y0139300D01*
X0087713Y0141781D02*
X0099495Y0141781D01*
X0105097Y0140183D02*
X0108503Y0140183D01*
X0108433Y0138584D02*
X0105167Y0138584D01*
X0104272Y0136986D02*
X0109328Y0136986D01*
X0111800Y0139300D02*
X0111800Y0149300D01*
X0126800Y0164300D01*
X0144300Y0164300D01*
X0148344Y0156900D02*
X0150395Y0156900D01*
X0149700Y0156205D01*
X0149700Y0153094D01*
X0148421Y0151815D01*
X0148748Y0152457D01*
X0148982Y0153176D01*
X0149100Y0153922D01*
X0149100Y0154100D01*
X0146900Y0154100D01*
X0146900Y0154500D01*
X0149100Y0154500D01*
X0149100Y0154678D01*
X0148982Y0155424D01*
X0148748Y0156143D01*
X0148405Y0156816D01*
X0148344Y0156900D01*
X0148735Y0156168D02*
X0149700Y0156168D01*
X0149700Y0154569D02*
X0149100Y0154569D01*
X0148915Y0152971D02*
X0149577Y0152971D01*
X0146380Y0149774D02*
X0145903Y0149774D01*
X0144500Y0149774D02*
X0144100Y0149774D01*
X0142697Y0149774D02*
X0125668Y0149774D01*
X0124200Y0148175D02*
X0144781Y0148175D01*
X0143183Y0146577D02*
X0124200Y0146577D01*
X0124200Y0144978D02*
X0141584Y0144978D01*
X0139986Y0143380D02*
X0124200Y0143380D01*
X0124200Y0141781D02*
X0138387Y0141781D01*
X0136789Y0140183D02*
X0125097Y0140183D01*
X0125167Y0138584D02*
X0135190Y0138584D01*
X0132200Y0136986D02*
X0124272Y0136986D01*
X0121800Y0139300D02*
X0121800Y0149300D01*
X0131800Y0159300D01*
X0159300Y0159300D01*
X0164300Y0164300D01*
X0162759Y0159365D02*
X0166200Y0159365D01*
X0161261Y0157766D02*
X0161160Y0157766D01*
X0159700Y0156168D02*
X0158900Y0156168D01*
X0158900Y0154569D02*
X0159700Y0154569D01*
X0159700Y0152971D02*
X0158900Y0152971D01*
X0157878Y0151372D02*
X0160722Y0151372D01*
X0162321Y0149774D02*
X0156279Y0149774D01*
X0154300Y0154300D02*
X0134300Y0134300D01*
X0136976Y0132190D02*
X0166200Y0132190D01*
X0166200Y0130592D02*
X0066363Y0130592D01*
X0066700Y0128993D02*
X0139207Y0128993D01*
X0138416Y0127395D02*
X0066700Y0127395D01*
X0066700Y0125796D02*
X0137402Y0125796D01*
X0135803Y0124198D02*
X0066700Y0124198D01*
X0066700Y0122599D02*
X0134205Y0122599D01*
X0132606Y0121001D02*
X0066700Y0121001D01*
X0066700Y0119402D02*
X0131008Y0119402D01*
X0129409Y0117803D02*
X0066700Y0117803D01*
X0066700Y0116205D02*
X0127811Y0116205D01*
X0129300Y0114300D02*
X0129300Y0101800D01*
X0131800Y0099300D01*
X0131800Y0096800D01*
X0134300Y0094300D01*
X0151800Y0094300D01*
X0156800Y0099300D01*
X0161800Y0099300D01*
X0157706Y0093826D02*
X0154720Y0093826D01*
X0155222Y0092227D02*
X0153068Y0092227D01*
X0155631Y0082636D02*
X0144200Y0082636D01*
X0144200Y0081038D02*
X0154541Y0081038D01*
X0154200Y0079439D02*
X0144200Y0079439D01*
X0144200Y0077841D02*
X0154425Y0077841D01*
X0165894Y0093826D02*
X0166200Y0093826D01*
X0154300Y0104300D02*
X0141800Y0104300D01*
X0141800Y0099300D01*
X0141800Y0104300D02*
X0134300Y0104300D01*
X0134300Y0109300D02*
X0144300Y0109300D01*
X0147513Y0108212D02*
X0154271Y0108212D01*
X0154200Y0109811D02*
X0147684Y0109811D01*
X0146977Y0111409D02*
X0154695Y0111409D01*
X0156003Y0113008D02*
X0131700Y0113008D01*
X0133001Y0114606D02*
X0166200Y0114606D01*
X0166200Y0116205D02*
X0134599Y0116205D01*
X0136198Y0117803D02*
X0166200Y0117803D01*
X0166200Y0119402D02*
X0137796Y0119402D01*
X0139395Y0121001D02*
X0166200Y0121001D01*
X0166200Y0122599D02*
X0140993Y0122599D01*
X0143984Y0124198D02*
X0166200Y0124198D01*
X0166200Y0125796D02*
X0145047Y0125796D01*
X0145184Y0127395D02*
X0166200Y0127395D01*
X0166200Y0128993D02*
X0144393Y0128993D01*
X0141800Y0126800D02*
X0129300Y0114300D01*
X0131624Y0132190D02*
X0064804Y0132190D01*
X0063205Y0133789D02*
X0130916Y0133789D01*
X0131087Y0135387D02*
X0061607Y0135387D01*
X0051800Y0151800D02*
X0049300Y0154300D01*
X0046800Y0154300D01*
X0024700Y0165759D02*
X0023900Y0165759D01*
X0016131Y0160963D02*
X0012469Y0160963D01*
X0013900Y0162562D02*
X0014700Y0162562D01*
X0014700Y0164160D02*
X0013900Y0164160D01*
X0013900Y0165759D02*
X0014700Y0165759D01*
X0009500Y0151372D02*
X0009100Y0151372D01*
X0021279Y0149774D02*
X0021900Y0149774D01*
X0065008Y0106614D02*
X0078592Y0106614D01*
X0076993Y0108212D02*
X0066447Y0108212D01*
X0066700Y0109811D02*
X0074003Y0109811D01*
X0073416Y0111409D02*
X0066700Y0111409D01*
X0066700Y0113008D02*
X0073637Y0113008D01*
X0074820Y0114606D02*
X0066700Y0114606D01*
X0063410Y0105015D02*
X0080190Y0105015D01*
X0081789Y0103417D02*
X0062597Y0103417D01*
X0094300Y0076800D02*
X0099300Y0071800D01*
X0099300Y0054300D01*
X0086800Y0041800D01*
X0091800Y0041800D02*
X0104300Y0054300D01*
X0104300Y0071800D01*
X0099300Y0076800D01*
X0119300Y0056800D02*
X0119300Y0039300D01*
X0116900Y0041075D02*
X0095163Y0041075D01*
X0094262Y0039476D02*
X0116082Y0039476D01*
X0116900Y0042673D02*
X0096068Y0042673D01*
X0097666Y0044272D02*
X0116900Y0044272D01*
X0116900Y0045870D02*
X0099265Y0045870D01*
X0100863Y0047469D02*
X0116900Y0047469D01*
X0116900Y0049068D02*
X0102462Y0049068D01*
X0104060Y0050666D02*
X0116900Y0050666D01*
X0106700Y0053823D02*
X0106335Y0052941D01*
X0105659Y0052265D01*
X0134300Y0051800D02*
X0141800Y0059300D01*
X0141900Y0055462D02*
X0141356Y0055462D01*
X0141900Y0053863D02*
X0139757Y0053863D01*
X0138159Y0052265D02*
X0141900Y0052265D01*
X0141900Y0050666D02*
X0137493Y0050666D01*
X0136354Y0049068D02*
X0141900Y0049068D01*
X0149300Y0014300D02*
X0154300Y0009300D01*
X0094190Y0018696D02*
X0089410Y0018696D01*
X0090827Y0017097D02*
X0092773Y0017097D01*
X0092200Y0015499D02*
X0091400Y0015499D01*
X0091400Y0013900D02*
X0092200Y0013900D01*
X0092200Y0012302D02*
X0091400Y0012302D01*
X0091400Y0010703D02*
X0092200Y0010703D01*
X0092200Y0009105D02*
X0091400Y0009105D01*
X0091243Y0007506D02*
X0092357Y0007506D01*
X0082357Y0007506D02*
X0081243Y0007506D01*
X0081400Y0009105D02*
X0082200Y0009105D01*
X0082200Y0010703D02*
X0081400Y0010703D01*
X0081400Y0012302D02*
X0082200Y0012302D01*
X0082200Y0013900D02*
X0081400Y0013900D01*
X0081400Y0015499D02*
X0082200Y0015499D01*
X0082773Y0017097D02*
X0080827Y0017097D01*
X0079410Y0018696D02*
X0084190Y0018696D01*
X0074190Y0018696D02*
X0069410Y0018696D01*
X0070827Y0017097D02*
X0072773Y0017097D01*
X0072200Y0015499D02*
X0071400Y0015499D01*
X0071400Y0013900D02*
X0072200Y0013900D01*
X0072200Y0012302D02*
X0071400Y0012302D01*
X0071400Y0010703D02*
X0072200Y0010703D01*
X0072200Y0009105D02*
X0071400Y0009105D01*
X0071243Y0007506D02*
X0072357Y0007506D01*
X0154300Y0104300D02*
X0159300Y0109300D01*
X0161800Y0109300D01*
X0166200Y0133789D02*
X0137684Y0133789D01*
X0138781Y0135387D02*
X0166200Y0135387D01*
X0166200Y0136986D02*
X0140380Y0136986D01*
X0141978Y0138584D02*
X0166200Y0138584D01*
X0166200Y0140183D02*
X0143577Y0140183D01*
X0145175Y0141781D02*
X0166200Y0141781D01*
X0166200Y0143380D02*
X0146774Y0143380D01*
X0148372Y0144978D02*
X0166200Y0144978D01*
X0166200Y0146577D02*
X0149971Y0146577D01*
X0151569Y0148175D02*
X0166200Y0148175D01*
X0144500Y0151372D02*
X0144100Y0151372D01*
X0140494Y0151372D02*
X0127266Y0151372D01*
X0128865Y0152971D02*
X0139685Y0152971D01*
X0139500Y0154569D02*
X0130463Y0154569D01*
X0132062Y0156168D02*
X0139865Y0156168D01*
X0124865Y0165759D02*
X0111382Y0165759D01*
X0111400Y0164160D02*
X0123266Y0164160D01*
X0121668Y0162562D02*
X0111400Y0162562D01*
X0111400Y0160963D02*
X0120069Y0160963D01*
X0118471Y0159365D02*
X0111400Y0159365D01*
X0111351Y0157766D02*
X0116872Y0157766D01*
X0115274Y0156168D02*
X0110673Y0156168D01*
X0108606Y0154569D02*
X0113675Y0154569D01*
X0116800Y0149300D02*
X0116800Y0139300D01*
X0114328Y0136986D02*
X0114272Y0136986D01*
X0119272Y0136986D02*
X0119328Y0136986D01*
X0104994Y0154569D02*
X0098606Y0154569D01*
X0100673Y0156168D02*
X0102927Y0156168D01*
X0102249Y0157766D02*
X0101351Y0157766D01*
X0101400Y0159365D02*
X0102200Y0159365D01*
X0102200Y0160963D02*
X0101400Y0160963D01*
X0101400Y0162562D02*
X0102200Y0162562D01*
X0102200Y0164160D02*
X0101400Y0164160D01*
X0101382Y0165759D02*
X0102218Y0165759D01*
X0092218Y0165759D02*
X0091382Y0165759D01*
X0091400Y0164160D02*
X0092200Y0164160D01*
X0092200Y0162562D02*
X0091400Y0162562D01*
X0091400Y0160963D02*
X0092200Y0160963D01*
X0092200Y0159365D02*
X0091400Y0159365D01*
X0091351Y0157766D02*
X0092249Y0157766D01*
X0092927Y0156168D02*
X0090673Y0156168D01*
X0088606Y0154569D02*
X0094994Y0154569D01*
D17*
X0161800Y0056800D03*
X0161800Y0049300D03*
M02*
