G75*
%MOIN*%
%OFA0B0*%
%FSLAX25Y25*%
%IPPOS*%
%LPD*%
%AMOC8*
5,1,8,0,0,1.08239X$1,22.5*
%
%ADD10C,0.01600*%
%ADD11C,0.00600*%
%ADD12C,0.00800*%
%ADD13C,0.00500*%
D10*
X0001800Y0001800D02*
X0001800Y0171800D01*
X0171800Y0171800D01*
X0171800Y0001800D01*
X0001800Y0001800D01*
D11*
X0004300Y0006800D02*
X0004300Y0021800D01*
X0006800Y0024300D01*
X0011800Y0024300D01*
X0014300Y0021800D01*
X0016800Y0024300D01*
X0021800Y0024300D01*
X0024300Y0021800D01*
X0026800Y0024300D01*
X0029300Y0024300D01*
X0031800Y0024300D01*
X0034300Y0021800D01*
X0034300Y0019300D01*
X0034300Y0006800D01*
X0031800Y0004300D01*
X0026800Y0004300D01*
X0024300Y0006800D01*
X0021800Y0004300D01*
X0016800Y0004300D01*
X0014300Y0006800D01*
X0011800Y0004300D01*
X0006800Y0004300D01*
X0004300Y0006800D01*
X0011800Y0031800D02*
X0009300Y0034300D01*
X0009300Y0039300D01*
X0011800Y0041800D01*
X0009300Y0044300D01*
X0009300Y0049300D01*
X0011800Y0051800D01*
X0009300Y0054300D01*
X0009300Y0059300D01*
X0011800Y0061800D01*
X0016800Y0061800D01*
X0019300Y0059300D01*
X0019300Y0054300D01*
X0016800Y0051800D01*
X0019300Y0049300D01*
X0019300Y0044300D01*
X0016800Y0041800D01*
X0019300Y0039300D01*
X0019300Y0034300D01*
X0016800Y0031800D01*
X0011800Y0031800D01*
X0024600Y0034600D02*
X0027803Y0034600D01*
X0028870Y0035668D01*
X0027803Y0036735D01*
X0025668Y0036735D01*
X0024600Y0037803D01*
X0025668Y0038870D01*
X0028870Y0038870D01*
X0040303Y0018505D02*
X0037100Y0015303D01*
X0041370Y0015303D01*
X0040303Y0018505D02*
X0040303Y0012100D01*
X0061800Y0014300D02*
X0061800Y0009300D01*
X0064300Y0006800D01*
X0069300Y0006800D01*
X0071800Y0009300D01*
X0074300Y0006800D01*
X0079300Y0006800D01*
X0081800Y0009300D01*
X0084300Y0006800D01*
X0089300Y0006800D01*
X0091800Y0009300D01*
X0094300Y0006800D01*
X0099300Y0006800D01*
X0101800Y0009300D01*
X0104300Y0006800D01*
X0109300Y0006800D01*
X0111800Y0009300D01*
X0111800Y0014300D01*
X0109300Y0016800D01*
X0104300Y0016800D01*
X0101800Y0014300D01*
X0099300Y0016800D01*
X0094300Y0016800D01*
X0091800Y0014300D01*
X0089300Y0016800D01*
X0084300Y0016800D01*
X0081800Y0014300D01*
X0079300Y0016800D01*
X0074300Y0016800D01*
X0071800Y0014300D01*
X0069300Y0016800D01*
X0064300Y0016800D01*
X0061800Y0014300D01*
X0099600Y0047803D02*
X0103870Y0047803D01*
X0115668Y0067100D02*
X0114600Y0068168D01*
X0115668Y0067100D02*
X0117803Y0067100D01*
X0118870Y0068168D01*
X0118870Y0069235D01*
X0117803Y0070303D01*
X0116735Y0070303D01*
X0117803Y0070303D02*
X0118870Y0071370D01*
X0118870Y0072438D01*
X0117803Y0073505D01*
X0115668Y0073505D01*
X0114600Y0072438D01*
X0103870Y0100303D02*
X0099600Y0100303D01*
X0114600Y0119600D02*
X0118870Y0123870D01*
X0118870Y0124938D01*
X0117803Y0126005D01*
X0115668Y0126005D01*
X0114600Y0124938D01*
X0114600Y0119600D02*
X0118870Y0119600D01*
X0141800Y0149300D02*
X0144300Y0149300D01*
X0146800Y0149300D01*
X0149300Y0151800D01*
X0151800Y0149300D01*
X0156800Y0149300D01*
X0159300Y0151800D01*
X0161800Y0149300D01*
X0166800Y0149300D01*
X0169300Y0151800D01*
X0169300Y0166800D01*
X0166800Y0169300D01*
X0161800Y0169300D01*
X0159300Y0166800D01*
X0156800Y0169300D01*
X0151800Y0169300D01*
X0149300Y0166800D01*
X0146800Y0169300D01*
X0141800Y0169300D01*
X0139300Y0166800D01*
X0139300Y0154300D01*
X0139300Y0151800D01*
X0141800Y0149300D01*
X0136370Y0159600D02*
X0132100Y0159600D01*
X0136370Y0163870D01*
X0136370Y0164938D01*
X0135303Y0166005D01*
X0133168Y0166005D01*
X0132100Y0164938D01*
X0111800Y0164300D02*
X0111800Y0159300D01*
X0109300Y0156800D01*
X0104300Y0156800D01*
X0101800Y0159300D01*
X0099300Y0156800D01*
X0094300Y0156800D01*
X0091800Y0159300D01*
X0089300Y0156800D01*
X0084300Y0156800D01*
X0081800Y0159300D01*
X0079300Y0156800D01*
X0074300Y0156800D01*
X0071800Y0159300D01*
X0069300Y0156800D01*
X0064300Y0156800D01*
X0061800Y0159300D01*
X0061800Y0164300D01*
X0064300Y0166800D01*
X0069300Y0166800D01*
X0071800Y0164300D01*
X0074300Y0166800D01*
X0079300Y0166800D01*
X0081800Y0164300D01*
X0084300Y0166800D01*
X0089300Y0166800D01*
X0091800Y0164300D01*
X0094300Y0166800D01*
X0099300Y0166800D01*
X0101800Y0164300D01*
X0104300Y0166800D01*
X0109300Y0166800D01*
X0111800Y0164300D01*
X0073870Y0132803D02*
X0069600Y0132803D01*
X0056735Y0116005D02*
X0056735Y0109600D01*
X0054600Y0109600D02*
X0058870Y0109600D01*
X0054600Y0113870D02*
X0056735Y0116005D01*
X0031800Y0149300D02*
X0026800Y0149300D01*
X0024300Y0151800D01*
X0021800Y0149300D01*
X0016800Y0149300D01*
X0014300Y0151800D01*
X0011800Y0149300D01*
X0009300Y0149300D01*
X0006800Y0149300D01*
X0004300Y0151800D01*
X0004300Y0154300D01*
X0004300Y0166800D01*
X0006800Y0169300D01*
X0011800Y0169300D01*
X0014300Y0166800D01*
X0016800Y0169300D01*
X0021800Y0169300D01*
X0024300Y0166800D01*
X0026800Y0169300D01*
X0031800Y0169300D01*
X0034300Y0166800D01*
X0034300Y0151800D01*
X0031800Y0149300D01*
X0039600Y0159600D02*
X0043870Y0159600D01*
X0041735Y0159600D02*
X0041735Y0166005D01*
X0039600Y0163870D01*
X0057100Y0162803D02*
X0061370Y0162803D01*
X0014300Y0114300D02*
X0016800Y0111800D01*
X0016800Y0106800D01*
X0014300Y0104300D01*
X0016800Y0101800D01*
X0016800Y0096800D01*
X0014300Y0094300D01*
X0016800Y0091800D01*
X0016800Y0086800D01*
X0014300Y0084300D01*
X0016800Y0081800D01*
X0016800Y0076800D01*
X0014300Y0074300D01*
X0016800Y0071800D01*
X0016800Y0066800D01*
X0014300Y0064300D01*
X0009300Y0064300D01*
X0006800Y0066800D01*
X0006800Y0071800D01*
X0009300Y0074300D01*
X0006800Y0076800D01*
X0006800Y0081800D01*
X0009300Y0084300D01*
X0006800Y0086800D01*
X0006800Y0091800D01*
X0009300Y0094300D01*
X0006800Y0096800D01*
X0006800Y0101800D01*
X0009300Y0104300D01*
X0006800Y0106800D01*
X0006800Y0111800D01*
X0009300Y0114300D01*
X0014300Y0114300D01*
X0057803Y0061005D02*
X0054600Y0057803D01*
X0058870Y0057803D01*
X0057803Y0061005D02*
X0057803Y0054600D01*
X0072100Y0077803D02*
X0076370Y0077803D01*
X0130668Y0016005D02*
X0132803Y0016005D01*
X0133870Y0014938D01*
X0133870Y0013870D01*
X0132803Y0012803D01*
X0133870Y0011735D01*
X0133870Y0010668D01*
X0132803Y0009600D01*
X0130668Y0009600D01*
X0129600Y0010668D01*
X0131735Y0012803D02*
X0132803Y0012803D01*
X0130668Y0016005D02*
X0129600Y0014938D01*
X0118870Y0011370D02*
X0115668Y0011370D01*
X0114600Y0010303D01*
X0115668Y0009235D01*
X0117803Y0009235D01*
X0118870Y0008168D01*
X0117803Y0007100D01*
X0114600Y0007100D01*
X0139300Y0006800D02*
X0139300Y0021800D01*
X0141800Y0024300D01*
X0146800Y0024300D01*
X0149300Y0021800D01*
X0151800Y0024300D01*
X0156800Y0024300D01*
X0159300Y0021800D01*
X0161800Y0024300D01*
X0164300Y0024300D01*
X0166800Y0024300D01*
X0169300Y0021800D01*
X0169300Y0019300D01*
X0169300Y0006800D01*
X0166800Y0004300D01*
X0161800Y0004300D01*
X0159300Y0006800D01*
X0156800Y0004300D01*
X0151800Y0004300D01*
X0149300Y0006800D01*
X0146800Y0004300D01*
X0141800Y0004300D01*
X0139300Y0006800D01*
X0152230Y0029600D02*
X0156500Y0029600D01*
X0154365Y0029600D02*
X0152230Y0031735D01*
X0152230Y0032803D01*
X0153297Y0034971D02*
X0152230Y0036039D01*
X0152230Y0038174D01*
X0153297Y0039242D01*
X0154365Y0039242D01*
X0154365Y0034971D01*
X0155432Y0034971D02*
X0153297Y0034971D01*
X0155432Y0034971D02*
X0156500Y0036039D01*
X0156500Y0038174D01*
X0160095Y0036748D02*
X0160095Y0034613D01*
X0161162Y0033545D01*
X0162230Y0033545D01*
X0163297Y0034613D01*
X0163297Y0036748D01*
X0164365Y0037816D01*
X0165432Y0037816D01*
X0166500Y0036748D01*
X0166500Y0034613D01*
X0165432Y0033545D01*
X0164365Y0033545D01*
X0163297Y0034613D01*
X0163297Y0031370D02*
X0163297Y0027100D01*
X0160095Y0030303D01*
X0166500Y0030303D01*
X0163297Y0036748D02*
X0162230Y0037816D01*
X0161162Y0037816D01*
X0160095Y0036748D01*
X0163297Y0039991D02*
X0163297Y0044261D01*
X0160095Y0043194D02*
X0166500Y0043194D01*
X0163297Y0039991D02*
X0160095Y0043194D01*
X0156500Y0043552D02*
X0152230Y0045687D01*
X0152230Y0041417D02*
X0156500Y0043552D01*
X0156500Y0054308D02*
X0156500Y0058578D01*
X0156500Y0056443D02*
X0150095Y0056443D01*
X0152230Y0054308D01*
X0155432Y0060753D02*
X0155432Y0061821D01*
X0156500Y0061821D01*
X0156500Y0060753D01*
X0155432Y0060753D01*
X0155432Y0063976D02*
X0151162Y0063976D01*
X0150095Y0065044D01*
X0150095Y0067179D01*
X0151162Y0068246D01*
X0155432Y0063976D01*
X0156500Y0065044D01*
X0156500Y0067179D01*
X0155432Y0068246D01*
X0151162Y0068246D01*
X0156800Y0066800D02*
X0156800Y0071800D01*
X0159300Y0074300D01*
X0156800Y0076800D01*
X0156800Y0081800D01*
X0159300Y0084300D01*
X0156800Y0086800D01*
X0156800Y0091800D01*
X0159300Y0094300D01*
X0156800Y0096800D01*
X0156800Y0101800D01*
X0159300Y0104300D01*
X0156800Y0106800D01*
X0156800Y0111800D01*
X0159300Y0114300D01*
X0164300Y0114300D01*
X0166800Y0111800D01*
X0166800Y0106800D01*
X0164300Y0104300D01*
X0166800Y0101800D01*
X0166800Y0096800D01*
X0164300Y0094300D01*
X0166800Y0091800D01*
X0166800Y0086800D01*
X0164300Y0084300D01*
X0166800Y0081800D01*
X0166800Y0076800D01*
X0164300Y0074300D01*
X0166800Y0071800D01*
X0166800Y0066800D01*
X0164300Y0064300D01*
X0159300Y0064300D01*
X0156800Y0066800D01*
X0164235Y0118168D02*
X0164235Y0122438D01*
X0162100Y0120303D02*
X0166370Y0120303D01*
D12*
X0124280Y0136249D02*
X0111288Y0136249D01*
X0109320Y0136249D01*
X0109320Y0102351D02*
X0111288Y0102351D01*
X0124280Y0102351D01*
X0124280Y0083749D02*
X0111288Y0083749D01*
X0109320Y0083749D01*
X0109320Y0049851D02*
X0111288Y0049851D01*
X0124280Y0049851D01*
X0064280Y0039851D02*
X0051288Y0039851D01*
X0049320Y0039851D01*
X0049320Y0073749D02*
X0051288Y0073749D01*
X0064280Y0073749D01*
X0064280Y0094851D02*
X0051288Y0094851D01*
X0049320Y0094851D01*
X0049320Y0128749D02*
X0051288Y0128749D01*
X0064280Y0128749D01*
D13*
X0014300Y0154300D02*
X0009300Y0154300D01*
X0009300Y0149300D01*
X0009300Y0154300D02*
X0004300Y0154300D01*
X0016550Y0030053D02*
X0016550Y0027050D01*
X0016550Y0028551D02*
X0012046Y0028551D01*
X0013547Y0027050D01*
X0024300Y0019300D02*
X0029300Y0019300D01*
X0029300Y0024300D01*
X0029300Y0019300D02*
X0034300Y0019300D01*
X0159300Y0019300D02*
X0164300Y0019300D01*
X0164300Y0024300D01*
X0164300Y0019300D02*
X0169300Y0019300D01*
X0144300Y0149300D02*
X0144300Y0154300D01*
X0139300Y0154300D01*
X0144300Y0154300D02*
X0149300Y0154300D01*
M02*
