%
M48
M72
T01C0.0197
T02C0.0354
T03C0.0400
%
T01
X2430Y2430
X3180Y2930
X3430Y4180
X2930Y5180
X2680Y6180
X2680Y6930
X3930Y5680
X5430Y6680
X5930Y7180
X6680Y7930
X5930Y8930
X5930Y9930
X5930Y10430
X4930Y8930
X2680Y8180
X3930Y11180
X5430Y12180
X7430Y12680
X7680Y11180
X9430Y9430
X9930Y8180
X9930Y7680
X9430Y6680
X8180Y7930
X10930Y8680
X11430Y10430
X11930Y10930
X13430Y10930
X13430Y10430
X14180Y9930
X14430Y10930
X14180Y12680
X14430Y13430
X13430Y13430
X12180Y13930
X11680Y13930
X11180Y13930
X10180Y13930
X11680Y14930
X7180Y15430
X4680Y15430
X3430Y14930
X2930Y14430
X1930Y14430
X2430Y13430
X2430Y12930
X1430Y12930
X3430Y15930
X11930Y5680
X11430Y5180
X13430Y5180
X14430Y2930
X13180Y2180
X12430Y2180
X11430Y2180
X11430Y1680
X10180Y2430
X9180Y4180
X8680Y4180
X8180Y3180
X7680Y3180
X14180Y8930
T02
X16180Y5680
X16180Y4930
T03
X930Y930
X930Y1930
X1930Y1930
X2930Y1930
X2930Y930
X1930Y930
X1430Y3680
X1430Y4680
X1430Y5680
X1180Y6930
X1180Y7930
X1180Y8930
X1180Y9930
X1180Y10930
X930Y15430
X930Y16430
X1930Y16430
X2930Y16430
X2930Y15430
X1930Y15430
X6680Y16180
X7680Y16180
X8680Y16180
X9680Y16180
X10680Y16180
X14430Y16430
X15430Y16430
X15430Y15430
X14430Y15430
X16430Y15430
X16430Y16430
X16180Y10930
X16180Y9930
X16180Y8930
X16180Y7930
X16180Y6930
X16430Y1930
X16430Y930
X15430Y930
X14430Y930
X14430Y1930
X15430Y1930
X10680Y1180
X9680Y1180
X8680Y1180
X7680Y1180
X6680Y1180
M30
